HIERARCHY
ROOT Hips
{
	OFFSET 0.000000 0.000000 0.000000
	CHANNELS 6 Xposition Yposition Zposition Xrotation Yrotation Zrotation
	JOINT Chest
	{
		OFFSET 0.000000 0.009282 11.569106
		CHANNELS 6 Xposition Yposition Zposition Xrotation Yrotation Zrotation
		JOINT Chest2
		{
			OFFSET 0.000000 -0.016863 9.269641
			CHANNELS 6 Xposition Yposition Zposition Xrotation Yrotation Zrotation
			JOINT Chest3
			{
				OFFSET 0.000000 0.000000 8.374491
				CHANNELS 6 Xposition Yposition Zposition Xrotation Yrotation Zrotation
				JOINT Chest4
				{
					OFFSET 0.000000 0.000000 8.374493
					CHANNELS 6 Xposition Yposition Zposition Xrotation Yrotation Zrotation
					JOINT Neck
					{
						OFFSET 0.000000 -0.000001 12.152554
						CHANNELS 6 Xposition Yposition Zposition Xrotation Yrotation Zrotation
						JOINT Head
						{
							OFFSET 0.000000 -0.040100 7.802319
							CHANNELS 6 Xposition Yposition Zposition Xrotation Yrotation Zrotation
							End Site
							{
								OFFSET 0.000000 -0.020946 14.853096
							}
						}
					}
					JOINT RightCollar
					{
						OFFSET -2.894404 0.000000 6.791374
						CHANNELS 6 Xposition Yposition Zposition Xrotation Yrotation Zrotation
						JOINT RightShoulder
						{
							OFFSET -13.574684 0.000000 0.000000
							CHANNELS 6 Xposition Yposition Zposition Xrotation Yrotation Zrotation
							JOINT RightElbow
							{
								OFFSET -23.923903 0.000000 0.000000
								CHANNELS 6 Xposition Yposition Zposition Xrotation Yrotation Zrotation
								JOINT RightWrist
								{
									OFFSET -19.846718 -0.012765 0.000000
									CHANNELS 6 Xposition Yposition Zposition Xrotation Yrotation Zrotation
									End Site
									{
										OFFSET -14.973145 0.000000 0.000000
									}
								}
							}
						}
					}
					JOINT LeftCollar
					{
						OFFSET 2.894404 0.000000 6.791374
						CHANNELS 6 Xposition Yposition Zposition Xrotation Yrotation Zrotation
						JOINT LeftShoulder
						{
							OFFSET 13.574684 0.000000 0.000000
							CHANNELS 6 Xposition Yposition Zposition Xrotation Yrotation Zrotation
							JOINT LeftElbow
							{
								OFFSET 23.923903 0.000000 0.000000
								CHANNELS 6 Xposition Yposition Zposition Xrotation Yrotation Zrotation
								JOINT LeftWrist
								{
									OFFSET 19.846718 -0.012765 0.000000
									CHANNELS 6 Xposition Yposition Zposition Xrotation Yrotation Zrotation
									End Site
									{
										OFFSET 14.973145 0.000000 0.000000
									}
								}
							}
						}
					}
				}
			}
		}
	}
	JOINT RightHip
	{
		OFFSET -9.469263 -0.004642 0.045487
		CHANNELS 6 Xposition Yposition Zposition Xrotation Yrotation Zrotation
		JOINT RightKnee
		{
			OFFSET 0.000000 -0.002666 -40.478676
			CHANNELS 6 Xposition Yposition Zposition Xrotation Yrotation Zrotation
			JOINT RightAnkle
			{
				OFFSET 0.000000 -0.049110 -35.224068
				CHANNELS 6 Xposition Yposition Zposition Xrotation Yrotation Zrotation
				JOINT RightToe
				{
					OFFSET 0.000000 -12.539530 -6.151390
					CHANNELS 6 Xposition Yposition Zposition Xrotation Yrotation Zrotation
					End Site
					{
						OFFSET 0.000000 -5.044995 -1.291870
					}
				}
			}
		}
	}
	JOINT LeftHip
	{
		OFFSET 9.469263 -0.004642 0.045487
		CHANNELS 6 Xposition Yposition Zposition Xrotation Yrotation Zrotation
		JOINT LeftKnee
		{
			OFFSET 0.000000 -0.002666 -40.478676
			CHANNELS 6 Xposition Yposition Zposition Xrotation Yrotation Zrotation
			JOINT LeftAnkle
			{
				OFFSET 0.000000 -0.049110 -35.224068
				CHANNELS 6 Xposition Yposition Zposition Xrotation Yrotation Zrotation
				JOINT LeftToe
				{
					OFFSET 0.000000 -12.539530 -6.151390
					CHANNELS 6 Xposition Yposition Zposition Xrotation Yrotation Zrotation
					End Site
					{
						OFFSET 0.000000 -5.044995 -1.291870
					}
				}
			}
		}
	}
}
MOTION
Frames: 6
Frame Time: 0.016667
-59.200790 33.331749 33.983864 13.415998 12.984444 -116.153268 -0.000000 0.009282 11.569107 9.112106 -3.762574 -1.152875 0.000002 -0.016854 9.269637 4.063969 -1.648700 -0.581720 -0.000001 0.000003 8.374483 4.063971 -1.648700 -0.581721 -0.000000 0.000005 8.374496 3.049340 -1.232724 -0.447251 0.000002 -0.000004 12.152561 15.786326 -0.760862 -1.153094 -0.000003 -0.040101 7.802311 -6.873553 -0.964591 -2.376623 -2.894404 0.000001 6.791378 -5.646425 -4.443190 -3.911956 -13.574682 -0.000008 0.000004 33.024426 -35.604192 14.693147 -23.923893 -0.000008 -0.000002 60.799127 11.520549 64.621075 -19.846710 -0.012765 0.000003 -52.744503 30.658957 92.534979 2.894403 0.000000 6.791374 -8.257477 11.199867 -3.137438 13.574683 -0.000009 0.000001 27.724303 44.610407 -5.393507 23.923897 0.000008 -0.000014 61.917488 8.081470 -49.141766 19.846714 -0.012769 0.000008 -28.682215 -33.147222 -87.629135 -9.469261 -0.004641 0.045485 -100.673211 -2.841266 -10.764277 -0.000140 -0.006217 -40.476151 110.729108 -27.177311 3.460094 0.000757 -0.049209 -35.223999 5.385372 13.336130 -16.890288 -0.000000 -12.539533 -6.151376 -0.011227 0.010957 0.004208 9.469263 -0.004643 0.045488 -44.311925 15.627486 2.322474 0.000646 -0.007257 -40.476921 141.942314 16.395762 -14.608501 -0.001707 -0.049732 -35.223942 25.577098 -24.172693 44.526041 -0.000357 -12.542174 -6.154038 -90.534909 7.721543 7.794835 
-59.168819 33.346191 33.985584 13.415399 12.997111 -116.157749 0.000001 0.009282 11.569110 9.140970 -3.767057 -1.145651 -0.000001 -0.016853 9.269644 4.070867 -1.653026 -0.582243 0.000000 -0.000006 8.374497 4.070868 -1.653026 -0.582246 0.000000 0.000002 8.374484 3.054518 -1.235959 -0.447691 0.000000 -0.000003 12.152563 15.765197 -0.766054 -1.152136 0.000002 -0.040096 7.802312 -6.912908 -0.974019 -2.376936 -2.894403 -0.000001 6.791371 -5.673960 -4.445415 -3.919076 -13.574684 -0.000005 0.000004 33.021072 -35.585040 14.664988 -23.923895 -0.000003 -0.000005 60.776621 11.538167 64.655527 -19.846716 -0.012766 0.000000 -52.739077 30.658096 92.530157 2.894405 -0.000001 6.791380 -8.255540 11.198927 -3.147126 13.574683 -0.000010 0.000000 27.691411 44.626673 -5.374343 23.923906 0.000002 -0.000001 61.907366 8.065351 -49.138109 19.846714 -0.012765 0.000004 -28.655936 -33.153007 -87.618234 -9.469261 -0.004640 0.045488 -100.659715 -2.860596 -10.762901 -0.000139 -0.006215 -40.476151 110.714272 -27.181815 3.450822 0.000752 -0.049245 -35.223991 5.410446 13.326192 -16.839157 -0.000004 -12.539534 -6.151375 -0.019411 0.013832 0.003898 9.469263 -0.004641 0.045490 -44.303865 15.611046 2.347236 0.000649 -0.007261 -40.476929 141.939404 16.369250 -14.601590 -0.001708 -0.049735 -35.223934 25.590992 -24.186926 44.560240 -0.000358 -12.542171 -6.154031 -90.535066 7.755176 7.824954 
-59.195362 33.347202 33.988312 13.409522 12.985994 -116.146110 0.000001 0.009279 11.569108 9.142829 -3.782073 -1.155619 0.000000 -0.016863 9.269643 4.078610 -1.657665 -0.583194 0.000001 -0.000004 8.374493 4.078612 -1.657665 -0.583196 0.000000 -0.000001 8.374487 3.060330 -1.239423 -0.448453 -0.000003 0.000003 12.152562 15.748338 -0.770910 -1.153472 -0.000003 -0.040104 7.802308 -6.944324 -0.982073 -2.381282 -2.894407 0.000005 6.791377 -5.689670 -4.446572 -3.914502 -13.574681 -0.000012 -0.000003 32.992805 -35.570758 14.623360 -23.923897 -0.000000 -0.000001 60.760209 11.554086 64.685225 -19.846712 -0.012766 0.000005 -52.726602 30.650549 92.526688 2.894401 0.000006 6.791371 -8.269590 11.206034 -3.149115 13.574678 -0.000009 0.000004 27.674774 44.644118 -5.352545 23.923899 -0.000001 0.000005 61.899628 8.048755 -49.138314 19.846704 -0.012766 -0.000006 -28.633726 -33.163669 -87.601588 -9.469262 -0.004645 0.045491 -100.671149 -2.861920 -10.764786 -0.000139 -0.006211 -40.476158 110.702374 -27.182268 3.438758 0.000752 -0.049219 -35.224007 5.388731 13.324398 -16.939627 -0.000000 -12.539534 -6.151379 -0.008588 0.017081 0.002324 9.469264 -0.004646 0.045487 -44.298387 15.613478 2.351136 0.000649 -0.007255 -40.476936 141.922056 16.366516 -14.602190 -0.001711 -0.049731 -35.223946 25.591500 -24.148176 44.586925 -0.000359 -12.542178 -6.154039 -90.556035 7.770583 7.849179 
-59.155838 33.367645 33.994160 13.406216 12.998271 -116.144963 -0.000002 0.009277 11.569108 9.168914 -3.787580 -1.153352 -0.000001 -0.016866 9.269638 4.085088 -1.661767 -0.585259 -0.000002 -0.000008 8.374484 4.085088 -1.661767 -0.585259 0.000002 0.000001 8.374498 3.065196 -1.242480 -0.450047 0.000001 -0.000003 12.152556 15.732974 -0.776982 -1.155325 0.000002 -0.040102 7.802300 -6.972968 -0.992178 -2.386981 -2.894402 -0.000001 6.791378 -5.706058 -4.452819 -3.906744 -13.574679 -0.000002 0.000001 32.972226 -35.547911 14.588980 -23.923899 -0.000005 -0.000006 60.748563 11.560194 64.709451 -19.846716 -0.012774 0.000005 -52.729644 30.649019 92.536482 2.894403 0.000000 6.791372 -8.271929 11.213607 -3.157813 13.574682 -0.000000 -0.000005 27.653747 44.658861 -5.329830 23.923901 0.000002 -0.000011 61.892866 8.035824 -49.141797 19.846724 -0.012768 0.000004 -28.624737 -33.177337 -87.591418 -9.469269 -0.004645 0.045489 -100.659407 -2.876056 -10.762479 -0.000138 -0.006216 -40.476154 110.688161 -27.188475 3.417187 0.000756 -0.049219 -35.223999 5.377876 13.325899 -16.984652 0.000002 -12.539530 -6.151374 -0.004340 0.020732 0.000350 9.469261 -0.004643 0.045488 -44.288418 15.589992 2.375417 0.000656 -0.007267 -40.476940 141.916783 16.334298 -14.605589 -0.001715 -0.049737 -35.223938 25.641842 -24.201116 44.649223 -0.000363 -12.542178 -6.154039 -90.556526 7.812254 7.888763 
-59.181919 33.372845 34.000164 13.396940 12.983821 -116.117833 -0.000001 0.009279 11.569106 9.164525 -3.801303 -1.169813 -0.000003 -0.016849 9.269642 4.091014 -1.664815 -0.588501 -0.000002 -0.000003 8.374486 4.091014 -1.664816 -0.588493 0.000001 0.000002 8.374501 3.069652 -1.244741 -0.452511 -0.000002 -0.000006 12.152557 15.720063 -0.782876 -1.156441 0.000002 -0.040099 7.802312 -6.997062 -1.002263 -2.391280 -2.894404 -0.000001 6.791379 -5.716488 -4.460797 -3.903578 -13.574691 0.000000 0.000001 32.973459 -35.527632 14.570397 -23.923904 -0.000005 0.000002 60.724254 11.575310 64.726069 -19.846724 -0.012760 0.000007 -52.737393 30.647185 92.547007 2.894403 0.000001 6.791378 -8.245154 11.221824 -3.179819 13.574679 -0.000002 -0.000008 27.613350 44.669478 -5.295725 23.923897 0.000006 -0.000005 61.874171 8.024724 -49.153228 19.846720 -0.012767 -0.000006 -28.603126 -33.197223 -87.578707 -9.469259 -0.004645 0.045481 -100.668266 -2.858807 -10.767158 -0.000130 -0.006207 -40.476158 110.674575 -27.195756 3.399256 0.000758 -0.049239 -35.224014 5.413620 13.326437 -16.874496 -0.000002 -12.539528 -6.151379 -0.021729 0.020740 0.004217 9.469267 -0.004644 0.045489 -44.286342 15.595385 2.375875 0.000650 -0.007252 -40.476933 141.894038 16.322655 -14.584158 -0.001711 -0.049738 -35.223949 25.681419 -24.217955 44.678900 -0.000368 -12.542171 -6.154031 -90.578629 7.834001 7.920411 
-59.138096 33.398281 34.010002 13.391709 12.997643 -116.111221 -0.000003 0.009284 11.569107 9.189287 -3.799614 -1.167330 0.000000 -0.016860 9.269639 4.095940 -1.666619 -0.590717 -0.000001 0.000003 8.374489 4.095939 -1.666619 -0.590722 -0.000001 0.000008 8.374500 3.073351 -1.246073 -0.454204 0.000002 -0.000000 12.152548 15.707335 -0.788444 -1.155599 -0.000002 -0.040097 7.802312 -7.020825 -1.012481 -2.391888 -2.894402 0.000002 6.791362 -5.709385 -4.467446 -3.907360 -13.574685 -0.000004 0.000007 32.965543 -35.513350 14.568194 -23.923895 -0.000007 0.000007 60.703648 11.583157 64.739128 -19.846720 -0.012764 -0.000003 -52.733237 30.645133 92.554425 2.894406 0.000003 6.791365 -8.204014 11.228286 -3.205388 13.574680 -0.000001 -0.000007 27.566524 44.672944 -5.254829 23.923893 0.000001 -0.000016 61.850491 8.015982 -49.171932 19.846725 -0.012770 0.000000 -28.588278 -33.215473 -87.570088 -9.469264 -0.004641 0.045486 -100.647694 -2.857616 -10.771503 -0.000139 -0.006210 -40.476151 110.661571 -27.200224 3.383645 0.000751 -0.049210 -35.224003 5.426088 13.331080 -16.828022 -0.000000 -12.539529 -6.151391 -0.026415 0.025427 0.002950 9.469259 -0.004644 0.045487 -44.272695 15.571289 2.397421 0.000649 -0.007258 -40.476933 141.882099 16.284537 -14.578890 -0.001716 -0.049737 -35.223919 25.727711 -24.269559 44.738217 -0.000367 -12.542168 -6.154025 -90.578479 7.886327 7.969277 
